<svg width="400" height="400" viewBox="0 0 400 400" fill="none" xmlns="http://www.w3.org/2000/svg">
<g id="Frame 2">
<path id="Vector 1" d="M29 258V317C33.257 319.213 38.4438 321.525 44.5 323.82M29 258L60.5 264.5M29 258C35.4415 252.437 71.8457 239.209 166 226.315M328.5 258L314.5 249M328.5 258H313L316.5 263M328.5 258L313 319.426M328.5 258L321.924 306.5M314.5 249L324.5 246.5V238.5C322.002 237.208 318.644 235.723 314.5 234.171M314.5 249L308.5 246.5L299 241.5V238.5L281 233.5V232L262.5 229V226L222.5 220.365M256.5 268L272 270.5M256.5 268L241.5 272M256.5 268L233.5 324.5M256.5 268L260 333.203M272 270.5L285 266M272 270.5L260 333.203M285 266L297.5 269.5M285 266L260 333.203M297.5 269.5L310.5 268M297.5 269.5L276 329.664M310.5 268L308.5 263H316.5M310.5 268L285 327.438M316.5 263L307 314L313 319.426M316.5 263L313 319.426M60.5 264.5L64.5 270.5L76.5 272L91 268M60.5 264.5L44.5 323.82M91 268H117M91 268L95 337.195L117 268M91 268C91 266.4 88.6667 261 87.5 258.5M117 268L121.5 274M117 268L136.5 258M121.5 274H143M121.5 274L126.5 341.357M143 274L148 281.5M143 274L163 266M148 281.5H170M148 281.5L157 342.993M170 281.5L187.5 276.5M170 281.5L186.5 342.533M187.5 276.5L207 278.5M187.5 276.5L186.5 342.533M187.5 276.5L185 268M207 278.5L223.5 270.5M207 278.5L186.5 342.533M207 278.5L211 340.699M223.5 270.5L241.5 272M223.5 270.5L233.5 324.5M223.5 270.5L221 263M241.5 272L233.5 324.5M44.5 323.82C63.7191 331.101 91.6944 338.2 126.5 341.357M126.5 341.357C144.72 343.009 164.812 343.581 186.5 342.533M186.5 342.533C194.456 342.149 202.628 341.546 211 340.699M211 340.699C218.348 339.955 225.851 339.023 233.5 337.885M233.5 324.5V337.885M233.5 337.885C242.151 336.597 250.989 335.045 260 333.203M260 333.203C265.275 332.125 270.609 330.947 276 329.664M276 329.664C278.983 328.955 281.983 328.213 285 327.438M285 327.438C294.181 325.081 303.519 322.419 313 319.426M313 319.426C315.49 318.641 317.99 317.832 320.5 317L321.924 306.5M222.5 220.365C217.937 220.464 213.267 220.671 208.5 221C194.731 222.574 181.916 224.169 170 225.772M222.5 220.365C224.77 220.316 227.015 220.293 229.232 220.295M187.5 120L180 108.5L193 81.5H205.5M187.5 120L175 146L189 170M187.5 120H201.5M189 170H202.5M189 170L180.092 181.5M166 226.315L161.5 205.5L171.183 193M166 226.315C167.322 226.134 168.655 225.953 170 225.772M205.5 81.5L213.5 96M205.5 81.5L211.363 70M218.5 56H231.5M218.5 56L212 68.75L211.363 70M218.5 56L226.5 70M329.5 110.5L308.5 70H294L288 56H259M329.5 110.5H305M329.5 110.5L322.5 120M322.5 120H336L344.5 135M322.5 120H310.5M344.5 135L333 155.5M344.5 135L319 135.5M333 155.5H352L358.5 170L350 182.5L356 192.5H369.5L376 207M333 155.5L331 160M376 207L366 229L382 252M376 207L359 208.5M382 252L374.5 264.5L384.5 276.5M382 252L356 258.5M384.5 276.5L376 287L350 296.376M384.5 276.5L357 283M321.924 306.5L343.5 298.72M213.5 96L201.5 120M213.5 96H226.5M201.5 120L213.5 146M213.5 146L208.5 158.5M213.5 146H228.25M243 146L249.625 159.375M243 146H228.25M243 146L248.971 134.5M256.5 120L243 96M256.5 120H268M256.5 120L248.971 134.5M243 96L247.808 83.5M243 96H226.5M223.5 110.5C221.171 110.5 219.104 110.5 218.5 110.5L211 122L218.5 134.5H222.5M223.5 110.5C225.795 110.5 228.345 110.5 230 110.5L231.5 112.8M223.5 110.5L228 119L231.5 112.8M223.5 110.5L222.196 112.5M222.5 134.5H231L232.82 131M222.5 134.5L228.5 123.5L232.82 131M222.5 134.5L216.26 122.5M259 56L268 70M259 56H244.5M268 70H281L296.407 96M268 70H253M305 110.5L299 120M305 110.5L296.407 96M299 120H310.5M299 120H268M299 120L289.5 108.5M299 120L291.5 135.5M310.5 120L319 135.5M319 135.5L312 148.5M305 161.5C305.4 161.5 322.5 160.5 331 160M305 161.5L312 148.5M305 161.5H291.5M305 161.5L312.269 175M310.5 201L319 187.5L312.269 175M310.5 201L316.5 229L314.5 234.171M310.5 201L294.5 199.915M314.5 234.171C302.241 229.579 283.102 224.395 259 221.86M281 199L259 221.86M281 199L275.5 186.25M281 199L294.5 199.915M259 221.86C249.769 220.889 239.811 220.307 229.232 220.295M232.82 131L234 128.731M237.5 122.5H230L234 128.731M234 128.731L237.5 122L236.196 120M232.82 115.5L230 120H236.196M236.196 120L231.5 112.8M217.5 119.7L216 122L216.26 122.5M217.5 119.7L226.5 120L222.196 112.5M217.5 119.7L222.196 112.5M216.26 122.5H226.5L221 132.5M208.5 158.5H222.196M208.5 158.5L202.5 170M222.196 158.5L228.5 171M222.196 158.5L228.25 146M228.5 171L221 183M228.5 171L242.5 172M221 183H207.5M221 183L225.5 196M207.5 183L202.5 170M207.5 183L200 194M276 135.5L268 148.5M276 135.5H291.5M276 135.5L268 120M268 148.5L276 161.5M268 148.5H255M276 161.5H291.5M276 161.5L270 173.5M291.5 161.5L297.5 148.5M291.5 161.5L297.5 175M297.5 148.5L291.5 135.5M297.5 148.5H312M242.5 172L225.5 196M242.5 172L256.25 172.75M242.5 172L249.625 159.375M270 173.5L256.25 172.75M270 173.5L275.5 186.25M225.5 196L227.497 209M225.5 196L213 208.5M229.232 220.295L227.497 209M233 218L237.5 218.184M233 218C233.159 217.682 232.903 215.253 232.463 212M233 218L238.5 212H232.463M230 196L235.172 188.866M230 196L238.5 196.5L235.172 188.866M230 196C230.149 196.896 230.316 197.911 230.493 199M244.5 176L248 183.5L253 176.362M244.5 176L253 176.362M244.5 176L243.5 177.379M276 198L273.714 192M276 198H270L273.714 192M276 198L274.238 200M257.5 219L262.786 213M257.5 219L257 213H262.786M257.5 219L255.457 218.917M253 176.362L257.5 176.553M257.5 176.553L260.5 184H251L257.5 176.553ZM257.5 176.553L260 176.66M271.5 187.5L264 187L268 196L272.5 190M273.714 192L271.048 185M243.5 177.379C243.5 178.276 245.5 182.167 246.5 184H238.7M243.5 177.379L238.7 184M238.7 184L236.887 186.5M236.887 186.5H246.5L240.5 195L236.887 186.5ZM236.887 186.5L235.172 188.866M230.493 199H237.5L231.441 205M230.493 199C230.794 200.854 231.122 202.925 231.441 205M231.441 205C231.649 206.352 231.852 207.705 232.04 209M232.04 209H240.5L239.5 201L232.04 209ZM232.04 209C232.193 210.048 232.335 211.059 232.463 212M274.238 200H269L270 204.811M274.238 200L270 204.811M270 204.811L264.548 211M268 206.5L267 202L259 211H264.548M264.548 211L262.786 213M255.457 218.917L255 214.5L251 218.735M255.457 218.917L251 218.735M251 218.735L248.691 218.64M248.691 218.64L254 213H243.5C243.9 213.4 244.702 216.828 245.053 218.492M248.691 218.64L245.053 218.492M245.053 218.492L242 218.367M242 218.367L241.5 214L237.5 218.184M242 218.367L237.5 218.184M260 176.66L268 177L269 179.625M260 176.66L262 182L266 177M269 179.625L264.548 185H271.048M269 179.625L271.048 185M186.5 207L201.5 208M186.5 207L170 225.772M186.5 207L185 194M201.5 208L202.5 221L213 208.5M201.5 208L200 194M201.5 208L213 208.5M213 208.5L227.497 209M171.183 193L185 194M171.183 193L180.092 181.5M185 194H200M185 194L180.092 181.5M256.25 172.75L249.625 159.375M331 160L345.5 186L340.167 194M343.5 298.72L349 289.5L337.5 263L346.5 250.5L340.5 237L343.523 233.5M343.5 298.72L350 296.376M340.167 194L337.5 198L348.884 223.5M340.167 194H352.5L359 208.5M359 208.5L348.884 223.5M348.884 223.5L350 226L343.523 233.5M343.523 233.5L356 258.5M356 258.5L350 270.5L357 283M357 283L350 296.376M249.625 159.375L255 148.5M253 70L244.5 56M253 70L247.808 83.5M244.5 56H231.5M231.5 56L226.5 70M226.5 70L232.82 83.5M226.5 70H211.363M232.82 83.5H247.808M232.82 83.5L226.5 96M296.407 96L289.5 108.5M289.5 108.5L283.5 120.5M297.5 175H312.269M297.5 175L289.5 186.5M289.5 186.5L275.5 186.25M289.5 186.5L294.5 199.915M248.971 134.5L255 148.5M155.5 244L179 244.5L180.092 252M155.5 244L133.5 252M155.5 244V238.5M180.092 252L159.5 258.5M180.092 252L200 253.5L201.5 261M159.5 258.5L136.5 258M159.5 258.5L163 266M136.5 258L133.5 252M133.5 252L108 253.5M201.5 261L185 268M201.5 261L221 263M185 268L163 266M108 253.5L87.5 258.5M108 253.5L107.5 248L91 249M87.5 258.5H71.5L73 253.5M91 249L73 253.5M91 249L95 244H89.5L70 249L64.5 253.5H73M155.5 238.5L131.5 240L136.5 235.5L163 229H180.092L179 232L155.5 238.5ZM218.5 241.5L200 240L198.5 234.171L217.5 230L235.172 234.171V238.5M218.5 241.5L235.172 238.5M218.5 241.5V248L237.5 250.5M235.172 238.5L254 241.5V246.5L237.5 250.5M237.5 250.5L238.5 256.5M254 258.5L256.5 266M254 258.5L268 253.5L281 256.5L285 264.5M254 258.5L238.5 256.5M238.5 256.5L221 263M210 162.5C210.8 162.5 217 162.5 220 162.5L223.5 171L218.5 179H210L206.5 170L210 162.5ZM249.5 186.5L253 195L259 187L249.5 186.5ZM262.5 188.5L266 198L256 197.5L262.5 188.5ZM248 188.5L251 197H242.5L248 188.5ZM242 199.5H249.5L242.5 207L242 199.5ZM255 199.5L266 200L257 209.5L255 199.5ZM253 202L246 210L254.5 210.5L253 202Z" stroke="black" stroke-width="1.5"/>
</g>
</svg>
